<svg width="17" height="17" viewBox="0 0 17 17" fill="none" xmlns="http://www.w3.org/2000/svg">
<path d="M8.20312 16.9023C7.32311 16.9065 6.44831 16.767 5.61328 16.4892C4.80527 16.2202 4.04418 15.8268 3.35742 15.3232C2.67783 14.8253 2.07816 14.2266 1.5791 13.5478C1.07558 12.8632 0.682146 12.104 0.41308 11.2978C-0.137693 9.6162 -0.137693 7.80272 0.41308 6.12108C0.817179 4.91037 1.49742 3.81025 2.39996 2.90772C3.30249 2.00519 4.40256 1.32499 5.61328 0.920891C6.85411 0.506393 8.17634 0.395955 9.46874 0.598862C10.7611 0.801769 11.9859 1.31209 13.04 2.08689C13.7188 2.58597 14.3175 3.18563 14.8154 3.86521C15.319 4.55197 15.7124 5.31307 15.9814 6.12107C16.3959 7.36191 16.5064 8.68414 16.3035 9.97654C16.1006 11.2689 15.5902 12.4937 14.8154 13.5478C14.3169 14.2261 13.7183 14.8247 13.04 15.3232C12.3554 15.8267 11.5962 16.2202 10.79 16.4892C9.95603 16.7671 9.0822 16.9067 8.20312 16.9023ZM8.20312 15.9004C8.97375 15.904 9.73976 15.7812 10.4707 15.5371C11.5319 15.1827 12.4963 14.5863 13.2874 13.7952C14.0786 13.004 14.6749 12.0397 15.0293 10.9785C15.5137 9.50356 15.5137 7.9124 15.0293 6.43748C14.6746 5.37574 14.0782 4.41085 13.2872 3.61879C12.4961 2.82672 11.532 2.22911 10.4707 1.87302C8.99578 1.38865 7.4046 1.38865 5.92968 1.87302C5.22118 2.10989 4.55398 2.45585 3.95214 2.89842C3.35553 3.33683 2.82902 3.86335 2.39062 4.45996C1.94806 5.0618 1.6021 5.729 1.36523 6.4375C0.880858 7.91242 0.880858 9.50358 1.36523 10.9785C1.72162 12.0396 2.3193 13.0036 3.11132 13.7946C3.90334 14.5856 4.86811 15.1821 5.92968 15.5371C6.66256 15.7816 7.43055 15.9043 8.20312 15.9004ZM8.75976 12.5254L8.08007 11.8457L9.3164 10.6152C9.46875 10.4668 9.63572 10.3115 9.81738 10.1494C9.99903 9.98728 10.1875 9.82516 10.3828 9.66305C10.5781 9.50094 10.7666 9.34761 10.9482 9.20305C11.1299 9.0585 11.2969 8.92959 11.4493 8.81633L11.2852 9.00383C11.1251 9.03508 10.9639 9.06536 10.8018 9.09465C10.6397 9.12394 10.4776 9.14738 10.3155 9.16497C10.153 9.18256 9.98967 9.19136 9.82623 9.19133H3.81451V8.21868H9.82623C9.98967 8.21865 10.153 8.22745 10.3155 8.24504C10.4776 8.26262 10.6397 8.28509 10.8018 8.31243C10.9639 8.33978 11.1251 8.37103 11.2852 8.40618L11.4493 8.59368C11.2501 8.44133 11.0225 8.26262 10.7667 8.05754C10.5108 7.85246 10.2559 7.64055 10.002 7.4218C9.7481 7.20306 9.51958 6.99405 9.31646 6.7948L8.08013 5.56433L8.75982 4.88464L12.5801 8.70496L8.75976 12.5254Z" fill="#AC936E"/>
</svg>
