<?xml version="1.0" encoding="UTF-8"?>
<svg id="Calque_2" xmlns="http://www.w3.org/2000/svg" xmlns:xlink="http://www.w3.org/1999/xlink" viewBox="0 0 466.636993408203125 466.631011962890625">
  <defs>
    <clipPath id="clippath">
      <rect width="466.636993408203125" height="466.631011962890625" style="fill: none;"/>
    </clipPath>
  </defs>
  <g id="Calque_1-2" data-name="Calque_1">
    <g style="clip-path: url(#clippath);">
      <path d="M421.413299560546875,374.789215087890625c-67.196990966796875-34.727996826171875-111.303985595703125-.143997192382812-95.972015380859375,74.722000122070312-40.77197265625-63.302001953125-96.628982543945312-55.673995971679688-120.694992065429688,17.120002746582031-3.802993774414062-74.747001647949219-55.534988403320312-96.024002075195312-112.999984741210938-45.224002838134766,34.72900390625-67.194004058837891.1519775390625-111.300998687744141-74.717010498046875-95.968997955322266C80.330291748046875,284.6632080078125,72.707305908203125,228.809219360351562.00030517578125,205.498199462890625c74.654998779296875-4.5579833984375,95.9329833984375-56.28997802734375,45.22100830078125-112.999969482421875,67.108978271484375,33.973968505859375,111.21197509765625-.60601806640625,95.879974365234375-75.472015380859375C181.874298095703125,80.328216552734375,237.734298706054688,72.700225830078125,261.038299560546875.000213623046875c4.657989501953125,75.406005859375,56.295989990234375,95.92498779296875,113,45.218994140625-33.970001220703125,67.10400390625.6090087890625,111.2080078125,75.475006103515625,95.876007080078125-63.298004150390625,40.7760009765625-55.673004150390625,96.63299560546875,17.123992919921875,120.694000244140625-75.503997802734375,3.9010009765625-96.782012939453125,55.632003784179688-45.2239990234375,113" style="fill: #b5936c;"/>
    </g>
  </g>
</svg>